<?xml version="1.0" encoding="UTF-8"?>
<svg width="1200pt" height="1200pt" version="1.1" viewBox="0 0 1200 1200" xmlns="http://www.w3.org/2000/svg">
 <path d="m690.12 505.8c-39.859-19.758-87.852-21.895-131.14-2.1211l-4.5195 2.0586c-32.535-15.18-69.82-16.906-103.71-4.707-30.309 10.906-55.613 32.113-71.648 59.68-33.281-4.9258-67.375 2.2266-96 20.379-25.195 15.988-44.469 39.438-55.363 66.785-32.781 1.9961-64.148 15.176-88.66 37.723-29.34 27.004-46.105 64.949-46.402 104.73h-23.387c-26.477 0-31.805 24.934-31.805 24.934 0 47.289 18.793 92.648 52.23 126.11 33.438 33.438 78.797 52.23 126.11 52.23h40.402c2.5273 24.93 13.559 48.363 31.445 66.254 20.477 20.488 48.258 31.988 77.227 31.988h343.44c28.965 0 56.75-11.5 77.223-31.988 17.887-17.891 28.922-41.324 31.445-66.254h40.402c47.309 0 92.668-18.793 126.11-52.23 33.438-33.457 52.23-78.816 52.23-126.11-0.015625-0.078125-5.3594-24.934-31.801-24.934h-32.488c-2.2773-58.273-41.512-109.95-99.117-126.68l-19.043-5.5312 279.39-201.69c15.473-11.176 25.863-28.035 28.887-46.855 3.0391-18.84-1.543-38.098-12.73-53.559-6.1992-8.5508-12.84-17.73-19.117-26.426-11.812-16.297-29.918-26.91-49.91-29.23-20.008-2.3359-40.062 3.832-55.285 17l-144.54 124.86 106.1-219.25c8.7734-18.125 9.5391-39.082 2.1211-57.797-7.4336-18.711-22.359-33.453-41.168-40.637-10.02-3.832-20.602-7.8672-30.48-11.641-17.809-6.8086-37.613-6.2461-55.02 1.5586-17.402 7.8086-30.992 22.207-37.77 40.031zm-383.55 487.79c2.1797 11.652 7.8359 22.484 16.359 30.992 11.125 11.141 26.227 17.387 41.965 17.387h343.44c15.738 0 30.836-6.2461 41.961-17.387 8.5234-8.5078 14.18-19.34 16.375-30.992zm-216.78-153.41h893.64c-4.8906 24.793-17.047 47.773-35.184 65.914-24.09 24.09-56.766 37.629-90.828 37.629h-641.6c-34.078 0-66.754-13.539-90.844-37.629-18.137-18.141-30.289-41.121-35.184-65.914zm826.41-49.863c-2.2305-34.016-25.461-63.883-59.258-73.699l-49.457-14.367c-11.16-3.2422-19.09-13.121-19.836-24.699 0 0-0.51562-7.9141-1.2344-18.871-1.418-21.938-19.633-39.016-41.633-39.016h-7.6367s-15.27 1.9648-24.262-14.461c0 0-5.2344-9.5664-5.2344-9.5664-24.48-44.734-79.359-62.98-125.75-41.789-8.9922 4.1133-15.16 6.918-16.297 7.4453-7.1836 3.2734-11.656 2.5898-11.656 2.5898s-8.4141-0.9375-20.523-7.0586c-19.898-10.035-43.035-11.438-64.008-3.8984-20.961 7.543-37.898 23.391-46.824 43.785-9.1797 20.957-28.094 22.953-28.094 22.953s-6.5156-0.77734-16.922-3.1641c-22.27-5.0781-45.641-1.0586-64.918 11.172-19.289 12.234-32.891 31.664-37.77 53.977-4.9219 22.484-26.957 21.691-26.957 21.691s-0.91797 0.046876-2.7422-0.125c-25.133-2.4922-50.156 5.8594-68.746 22.984-17.984 16.547-28.297 39.75-28.594 64.117 90.094-0.015625 677.52-0.015625 768.35 0zm-89.645-180.94 273.84-197.7c3.6016-2.6016 6-6.5117 6.7188-10.891 0.69922-4.3633-0.375-8.8359-2.9609-12.434l-19.137-26.43c-2.7422-3.7852-6.9492-6.2461-11.59-6.793-4.6445-0.53125-9.3047 0.90234-12.84 3.957l-259.02 223.77c9.8945 7.168 18.387 16.16 24.992 26.52zm-51.902-76.18 161.77-334.28c2.043-4.207 2.2305-9.0859 0.5-13.434s-5.1875-7.7578-9.5664-9.4258l-30.48-11.641c-4.1289-1.5898-8.7227-1.4492-12.777 0.35938-4.0352 1.8047-7.1992 5.1562-8.7695 9.3008l-139.43 366.54c4.3477 4.8633 8.4141 10.051 12.172 15.551zm-314.2-375.37s-7.1055 13.086-15.41 28.391c-21.16 38.953-13.977 87.227 17.621 118.33l0.015626 0.015625c14.07 13.852 17.281 35.34 7.8555 52.684-8.3047 15.316-15.41 28.391-15.41 28.391-7.2773 13.383-2.3086 30.133 11.078 37.395 13.367 7.2773 30.137 2.3047 37.395-11.062 0 0 7.1055-13.09 15.414-28.391 21.16-38.953 13.977-87.227-17.625-118.33l-0.015625-0.015625c-14.07-13.855-17.281-35.34-7.8516-52.699 8.3047-15.301 15.41-28.375 15.41-28.375 7.2617-13.387 2.3047-30.137-11.082-37.414-13.367-7.2578-30.133-2.2891-37.395 11.082zm152.09 0s-7.1055 13.086-15.41 28.391c-21.16 38.953-13.977 87.227 17.625 118.33l0.015625 0.015625c14.07 13.852 17.281 35.34 7.8516 52.684-8.3047 15.316-15.41 28.391-15.41 28.391-7.2617 13.383-2.3047 30.133 11.078 37.395 13.371 7.2773 30.137 2.3047 37.398-11.062 0 0 7.1055-13.09 15.41-28.391 21.16-38.953 13.977-87.227-17.625-118.33l-0.015625-0.015625c-14.07-13.855-17.277-35.34-7.8516-52.699 8.3047-15.301 15.41-28.375 15.41-28.375 7.2773-13.387 2.3047-30.137-11.078-37.414-13.371-7.2578-30.137-2.2891-37.398 11.082zm-304.19 0s-7.1016 13.086-15.426 28.391c-21.16 38.953-13.961 87.227 17.641 118.33l0.015626 0.015625c14.07 13.852 17.266 35.34 7.8516 52.684-8.3047 15.316-15.41 28.391-15.41 28.391-7.2773 13.383-2.3047 30.133 11.078 37.395 13.371 7.2773 30.137 2.3047 37.398-11.062 0 0 7.1055-13.09 15.41-28.391 21.16-38.953 13.977-87.227-17.621-118.33l-0.015625-0.015625c-14.074-13.855-17.281-35.34-7.8555-52.699 8.3047-15.301 15.41-28.375 15.41-28.375 7.2617-13.387 2.3086-30.137-11.078-37.414-13.371-7.2578-30.137-2.2891-37.398 11.082z" fill-rule="evenodd"/>
</svg>
